HIERARCHY
ROOT hip
{
	OFFSET 0.000000 0.000000 0.000000 
	CHANNELS 6 Xposition Yposition Zposition Xrotation Zrotation Yrotation
	JOINT abdomen
	{
		OFFSET 0.000000 3.402643 0.000000 
		CHANNELS 3 Xrotation Zrotation Yrotation
		JOINT chest
		{
			OFFSET 0.000000 8.438565 -0.680529 
			CHANNELS 3 Xrotation Zrotation Yrotation
			JOINT neck
			{
				OFFSET 0.000000 10.207942 -0.272212 
				CHANNELS 3 Xrotation Zrotation Yrotation
				JOINT head
				{
					OFFSET 0.000000 3.130431 0.000000 
					CHANNELS 3 Xrotation Zrotation Yrotation
					End Site
					{
						OFFSET 0.000000 3.130435 0.000000 
					}
				}
			}
			JOINT lCollar
			{
				OFFSET 3.470700 6.669187 -0.816635 
				CHANNELS 3 Yrotation Zrotation Xrotation
				JOINT lShldr
				{
					OFFSET 3.198488 0.000000 0.000000 
					CHANNELS 3 Zrotation Yrotation Xrotation
					JOINT lForeArm
					{
						OFFSET 10.139888 0.000000 0.000000 
						CHANNELS 3 Yrotation Zrotation Xrotation
						JOINT lHand
						{
							OFFSET 8.370511 0.000000 0.000000 
							CHANNELS 3 Zrotation Yrotation Xrotation
							End Site
							{
								OFFSET 4.083176 0.000000 0.000000 
							}
						}
					}
				}
			}
			JOINT rCollar
			{
				OFFSET -3.470700 6.669187 -0.816635 
				CHANNELS 3 Yrotation Zrotation Xrotation
				JOINT rShldr
				{
					OFFSET -3.198488 0.000000 0.000000 
					CHANNELS 3 Zrotation Yrotation Xrotation
					JOINT rForeArm
					{
						OFFSET -10.139888 0.000000 0.000000 
						CHANNELS 3 Yrotation Zrotation Xrotation
						JOINT rHand
						{
							OFFSET -8.370511 0.000000 0.000000 
							CHANNELS 3 Zrotation Yrotation Xrotation
							End Site
							{
								OFFSET -4.083176 0.000000 0.000000 
							}
						}
					}
				}
			}
		}
	}
	JOINT lThigh
	{
		OFFSET 5.308129 -1.633274 1.361059 
		CHANNELS 3 Xrotation Zrotation Yrotation
		JOINT lShin
		{
			OFFSET -2.041588 -20.007561 0.000000 
			CHANNELS 3 Xrotation Zrotation Yrotation
			JOINT lFoot
			{
				OFFSET 0.000000 -19.190928 -1.224953 
				CHANNELS 3 Xrotation Yrotation Zrotation
				End Site
				{
					OFFSET 0.000000 -2.449906 4.627600 
				}
			}
		}
	}
	JOINT rThigh
	{
		OFFSET -5.308129 -1.633274 1.361059 
		CHANNELS 3 Xrotation Zrotation Yrotation
		JOINT rShin
		{
			OFFSET 2.041588 -20.007561 0.000000 
			CHANNELS 3 Xrotation Zrotation Yrotation
			JOINT rFoot
			{
				OFFSET 0.000000 -19.190928 -1.224953 
				CHANNELS 3 Xrotation Yrotation Zrotation
				End Site
				{
					OFFSET 0.000000 -2.449906 4.627600 
				}
			}
		}
	}
}
MOTION
Frames: 19
Frame Time: 0.016667
-3.878949 42.363804 -43.138561 -8.750000 -4.931641 -8.965684 50.625000 7.929688 4.444706 7.587891 0.830078 -2.988140 -6.757813 4.052734 -0.566406 0.185547 -9.794916 16.834288 -25.615232 -5.712891 -0.301762 -62.509769 -12.197266 -2.812500 -70.468750 4.990234 -12.305536 0.615234 -11.601563 -45.009766 15.468749 -5.234375 0.263672 73.193359 45.361328 36.523438 71.552734 4.990234 3.037110 5.722657 -15.126953 -24.201767 -53.238983 23.045237 4.298474 69.868172 -1.461578 -4.297328 -23.465843 6.858399 -3.646472 -35.404129 2.968465 -3.124844 79.089783 1.867485 13.354533 -37.771778 -18.175076 -10.516711 
-3.998972 42.175785 -42.172539 -9.013673 -5.576172 -8.193360 50.585934 8.310546 5.488282 7.460938 0.624986 -2.705033 -7.060547 3.515625 -0.507813 0.664063 -9.541016 15.195312 -25.058594 -6.298828 -0.340726 -62.939457 -11.562499 -3.496094 -70.781250 4.990234 -11.669923 1.718750 -12.109375 -45.009766 15.742189 -5.410157 0.274358 71.992188 45.263672 35.241314 71.728516 4.990234 3.641728 5.800781 -14.960938 -24.846273 -53.829296 23.325558 3.755797 66.177887 -2.037087 -5.026911 -23.007914 6.596829 -4.289213 -34.220879 3.514236 -3.843146 80.436928 1.515565 12.899812 -39.475327 -18.459972 -10.588797 
-4.089484 41.969822 -41.202332 -9.238281 -6.240234 -7.519532 50.556641 8.720703 6.582032 7.373047 0.390625 -2.431571 -7.373047 2.988281 -0.449219 1.093750 -9.228516 13.660543 -24.404297 -6.923828 -0.369916 -63.310547 -10.957031 -4.210840 -71.201172 4.990234 -10.957881 2.841797 -12.216798 -45.011829 16.015625 -5.537110 0.274380 70.908203 45.058594 34.033203 72.070313 4.990234 4.169922 5.634765 -15.039063 -25.693359 -54.248779 23.599096 2.764050 62.940754 -2.847338 -6.026390 -22.495058 6.481274 -4.602298 -33.043541 4.051659 -4.625802 81.784325 1.173659 12.413285 -41.185680 -18.565462 -10.504928 
-4.157010 41.745262 -40.225082 -9.521484 -6.914062 -6.856645 50.546875 9.150390 7.667569 7.275390 0.175781 -2.138670 -7.666016 2.470703 -0.380859 1.494141 -8.935546 12.166452 -23.749998 -7.558595 -0.399106 -63.662109 -10.332031 -4.960938 -71.611328 4.990234 -10.244140 3.886719 -12.265624 -45.009762 16.298828 -5.644531 0.283203 69.873047 44.785156 32.877972 72.412109 4.990234 4.638672 5.488282 -15.146484 -26.418566 -54.657696 23.827990 1.728696 59.940033 -3.637515 -6.916431 -22.020140 6.305777 -4.925649 -31.906836 4.569073 -5.408458 83.217010 0.812563 11.962670 -42.844456 -18.679029 -10.374528 
-4.209592 41.507214 -39.237679 -9.921876 -7.656250 -6.269531 50.693363 9.619140 8.683271 7.148438 -0.019531 -1.806644 -7.861328 1.972656 -0.312500 1.865235 -8.691406 10.809072 -23.134766 -8.271484 -0.439453 -63.867188 -9.560547 -5.978184 -72.021484 4.990234 -9.541864 4.589843 -12.050780 -45.009762 16.660156 -5.693359 0.284172 69.062500 44.267578 31.881817 72.792969 4.990234 4.970703 5.429688 -15.244139 -26.484375 -54.918465 24.031815 0.193929 58.185932 -4.270966 -7.558156 -21.917076 6.051398 -4.974151 -30.779922 5.097136 -6.145721 84.894722 0.441453 11.459975 -44.613258 -18.743168 -10.121912 
-4.242075 41.250870 -38.245773 -10.341797 -8.408203 -5.703125 50.869141 10.097656 9.698977 7.011719 -0.224609 -1.445313 -8.046876 1.503906 -0.244141 2.226563 -8.437500 9.490753 -22.519531 -8.994141 -0.478516 -64.072266 -8.769531 -7.032737 -72.402344 4.990234 -8.858272 5.244141 -11.845703 -45.011765 17.031250 -5.732421 0.283203 68.300781 43.691410 30.908205 73.173828 4.990234 5.263671 5.371093 -15.332031 -26.435547 -55.128822 24.225342 -1.436656 56.644650 -4.856319 -8.097312 -21.895559 5.761864 -5.007084 -29.673105 5.604229 -6.881888 86.640350 0.088626 10.963558 -46.313717 -18.832731 -9.817964 
-4.241527 40.963661 -37.262939 -10.761719 -9.062501 -5.157788 50.996094 10.546875 10.519366 6.865234 -0.371094 -1.074282 -8.134767 1.005859 -0.166016 2.587891 -8.251953 8.300782 -22.021484 -9.687500 -0.517578 -64.277344 -7.880859 -8.261718 -72.666016 4.990234 -8.262568 5.546875 -11.923828 -45.009766 17.451172 -5.742188 0.293946 67.636719 42.988281 30.016424 73.603516 4.990234 5.478515 5.498047 -15.361328 -26.037741 -55.325695 24.343182 -2.855681 55.927563 -5.307350 -8.676501 -21.827559 5.487394 -4.829509 -28.731750 5.906505 -7.534247 88.621368 -0.292377 10.677809 -47.985489 -18.817434 -9.454412 
-4.211523 40.651218 -36.287403 -11.191406 -9.619141 -4.628906 51.093750 10.957031 11.171875 6.708984 -0.478516 -0.683675 -8.144532 0.517578 -0.097656 2.939453 -8.105469 7.236329 -21.650393 -10.332031 -0.546875 -64.492180 -6.894531 -9.649611 -72.792969 4.990234 -7.725458 5.449219 -12.255859 -45.011833 17.900389 -5.742188 0.292969 67.060547 42.138676 29.150391 74.091797 4.990234 5.634765 5.830078 -15.332031 -25.302734 -55.429806 24.361752 -4.070502 55.996037 -5.609621 -9.164447 -21.876600 5.341939 -4.297375 -28.005091 5.995017 -8.132032 90.917786 -0.703122 10.543238 -49.562622 -18.704649 -9.066490 
-4.163729 40.300388 -35.313244 -11.611328 -10.175780 -4.101562 51.191406 11.367188 11.818329 6.542969 -0.585938 -0.283204 -8.154297 0.019531 -0.019528 3.310547 -7.958984 6.160757 -21.259766 -10.986328 -0.585938 -64.726563 -5.917969 -11.045929 -72.910156 4.990234 -7.207031 5.332032 -12.587892 -45.011894 18.359377 -5.732421 0.293944 66.523438 41.289063 28.326756 74.580078 4.990234 5.760870 6.152344 -15.312500 -24.560545 -55.562073 24.373640 -5.313493 56.092014 -5.920578 -9.679270 -21.824076 5.207386 -3.796360 -27.284645 6.093131 -8.760902 93.232536 -1.162640 10.370920 -51.111538 -18.646156 -8.604469 
-4.100132 39.900429 -34.341522 -12.138672 -10.517579 -3.222656 51.269531 11.835938 12.050780 6.318359 -0.683594 -0.107538 -7.871094 -0.292969 0.029297 3.574219 -7.753907 5.457666 -21.015625 -11.318358 -0.603552 -65.175781 -4.736328 -12.753908 -73.271484 4.990234 -6.563349 5.625000 -13.291016 -45.012009 18.691406 -5.605469 0.293922 66.230469 40.488285 27.753906 75.097656 4.990234 5.819463 6.337891 -15.351563 -23.918598 -55.983921 24.032526 -5.927284 57.684521 -5.873596 -10.218941 -20.091904 4.262252 -3.706329 -26.547161 5.584696 -9.633702 95.757393 -1.621213 10.328751 -52.793583 -18.359627 -8.445683 
-4.024206 39.455311 -33.366554 -12.675782 -10.859376 -2.333984 51.337891 12.304688 12.277472 6.093750 -0.791016 0.058459 -7.597657 -0.615234 0.068359 3.828125 -7.558594 4.754575 -20.761719 -11.650392 -0.625000 -65.654297 -3.574219 -14.482419 -73.603516 4.990234 -5.957880 5.898438 -13.994140 -45.012123 19.013670 -5.488281 0.283203 65.957031 39.677738 27.213266 75.625000 4.990234 5.848760 6.513672 -15.400392 -23.271484 -56.400455 23.689625 -6.528812 59.306114 -5.786018 -10.798362 -18.406757 3.306432 -3.513582 -25.847075 5.116297 -10.543972 98.303391 -2.080173 10.239243 -54.516445 -18.156517 -8.237287 
-3.944335 38.952824 -32.377041 -13.291015 -11.250000 -1.124952 51.367184 12.949219 12.431640 5.908203 -0.800781 0.195313 -7.402343 -0.908203 0.097501 4.160156 -7.382813 3.944057 -20.546875 -11.865233 -0.634766 -66.269531 -2.480469 -16.201172 -74.003906 4.990234 -5.303584 6.289063 -14.619141 -45.012226 19.169922 -5.498046 0.283203 65.869141 38.798828 26.656511 76.337891 4.990234 5.820313 6.699219 -15.634766 -22.766306 -57.340782 23.104473 -7.216528 61.764217 -5.494949 -11.568610 -15.913544 2.312552 -2.846861 -24.972271 4.501718 -11.680987 100.934097 -2.588934 10.197299 -56.413624 -17.758451 -8.019546 
-3.859091 38.384144 -31.372841 -14.003906 -11.689453 0.398412 51.386719 13.789063 12.521860 5.781250 -0.742188 0.283077 -7.285157 -1.171875 0.136719 4.531250 -7.226563 3.027344 -20.361328 -11.962891 -0.634766 -67.021484 -1.455078 -17.929937 -74.482422 4.990234 -4.629755 6.816406 -15.146484 -45.012318 19.169922 -5.644531 0.292969 65.986328 37.841797 26.113283 77.236328 4.990234 5.703125 6.865235 -16.064455 -22.356218 -58.762951 22.263718 -8.071636 65.072014 -5.065876 -12.464461 -12.598095 1.399057 -1.508782 -23.908232 3.808893 -13.030700 103.540726 -3.065665 10.065564 -58.608822 -17.215088 -7.753557 
-3.769366 37.780277 -30.351017 -14.755858 -12.119141 1.999903 51.376949 14.667970 12.578125 5.654297 -0.693359 0.390507 -7.167968 -1.396484 0.165778 4.912109 -7.060547 2.078878 -20.185547 -12.070312 -0.642489 -67.753906 -0.458984 -19.677814 -74.951172 4.990234 -3.975459 7.324218 -15.615234 -45.009762 19.130861 -5.781250 0.293952 66.093750 36.855469 25.533197 78.154297 4.990234 5.546875 6.972656 -16.503906 -21.992184 -60.178432 21.346043 -8.849003 68.521706 -4.489106 -13.295955 -9.574060 0.637965 -0.072485 -22.767508 3.115721 -14.466614 106.106071 -3.563303 10.015037 -60.799953 -16.737442 -7.498710 
-3.673902 37.144924 -29.306833 -15.703124 -12.548829 4.011550 51.347656 15.800780 12.490233 5.595703 -0.693359 0.517578 -7.041016 -1.533203 0.175781 5.273438 -6.826066 0.916832 -20.048828 -12.197266 -0.654297 -68.369141 0.478516 -21.435574 -75.488281 4.990234 -3.261719 7.802734 -15.839844 -45.009769 18.955080 -5.810547 0.303723 66.142578 35.722656 24.746092 79.169922 4.990234 5.292120 6.796875 -16.982420 -21.845705 -61.614418 20.164484 -9.476898 72.574677 -3.592076 -13.901620 -8.131497 0.091183 1.587860 -21.108660 2.304988 -16.248873 108.461731 -4.062136 10.142278 -63.075138 -16.267414 -7.474386 
-3.575787 36.481461 -28.243999 -16.708984 -12.949218 6.101327 51.308594 16.972654 12.373046 5.546875 -0.703125 0.644531 -6.904297 -1.640625 0.185268 5.644531 -6.572265 -0.283203 -19.912109 -12.324219 -0.652213 -68.984375 1.386719 -23.203125 -76.005859 4.990234 -2.587890 8.251953 -16.015625 -45.009766 18.740234 -5.820313 0.302734 66.191406 34.580078 23.925781 80.234375 4.990234 4.960088 6.572266 -17.470703 -21.728516 -63.045685 18.895988 -10.046411 76.759644 -2.616861 -14.422534 -6.930189 -0.330784 3.378755 -19.348640 1.544422 -18.154749 110.759010 -4.618745 10.291553 -65.369278 -15.878057 -7.449777 
-3.481209 35.816097 -27.169527 -17.763672 -13.310547 8.320313 51.132816 18.203125 12.083131 5.576172 -0.712891 0.800660 -6.669922 -1.757813 0.195013 5.996094 -6.279297 -1.464844 -19.697264 -12.490233 -0.661951 -69.433594 2.197266 -24.794548 -76.435547 4.990234 -1.953125 8.574218 -16.142576 -45.009762 18.691406 -5.751953 0.293947 66.123047 33.242188 22.866682 81.328125 4.990234 4.579228 6.279297 -18.046873 -21.728516 -64.269196 17.615913 -10.541127 80.943153 -1.552554 -14.769224 -7.081762 -0.755157 4.717841 -17.273451 0.830534 -20.083126 112.798569 -4.999197 10.178394 -67.453140 -15.382363 -7.231555 
-3.387177 35.142811 -26.077999 -18.886719 -13.613280 10.671531 50.810547 19.501953 11.611329 5.693360 -0.742188 0.956905 -6.337891 -1.884766 0.195312 6.337891 -5.927735 -2.647493 -19.423828 -12.685547 -0.673828 -69.697266 2.910156 -26.200676 -76.787109 4.443359 -1.357422 8.759767 -16.220703 -45.012489 18.798828 -5.595703 0.293921 65.917961 31.728514 21.523436 82.441406 4.990234 4.159307 5.937500 -18.710938 -21.865234 -65.381088 16.317535 -11.026393 85.144432 -0.468738 -15.093588 -8.497788 -1.269673 5.555153 -14.895310 0.217828 -21.954710 114.568512 -5.185192 9.811990 -69.246574 -14.934030 -6.710227 
-3.313549 34.486858 -25.008724 -19.970705 -13.857422 12.998048 50.419922 20.722654 11.083984 5.800781 -0.742188 1.142452 -5.976562 -1.962891 0.204744 6.679688 -5.546875 -3.819304 -19.160158 -12.851563 -0.683594 -69.960938 3.613281 -27.558594 -77.119141 2.177734 -0.801152 8.955078 -16.240234 -45.009769 18.935545 -5.410156 0.273437 65.673828 30.156252 20.126951 83.574219 4.990234 3.680791 5.576172 -19.335939 -22.073547 -66.478355 15.038398 -11.382694 89.317711 0.683544 -15.360300 -9.925858 -1.735233 6.368100 -12.561667 -0.299226 -23.768616 116.292519 -5.312381 9.410756 -70.952698 -14.563538 -6.195670 
